<svg width="9" height="5" viewBox="0 0 9 5" fill="none" xmlns="http://www.w3.org/2000/svg">
<path d="M0.143855 4.58211L0.438663 4.86132C0.531444 4.94852 0.654883 4.99656 0.786811 4.99656C0.918666 4.99656 1.04225 4.94852 1.13503 4.86132L4.49799 1.69807L7.86482 4.86483C7.95745 4.95203 8.08104 5 8.2129 5C8.34475 5 8.46841 4.95203 8.56112 4.86483L8.856 4.58734C9.048 4.40688 9.048 4.11294 8.856 3.93248L4.84738 0.14852C4.75475 0.0613903 4.63131 -9.49138e-08 4.49828 -8.32843e-08L4.49674 -8.315e-08C4.36482 -7.16165e-08 4.24138 0.061459 4.14874 0.14852L0.143855 3.92223C0.0510739 4.00936 0.000145836 4.12898 -6.53054e-08 4.25299C-5.44572e-08 4.37708 0.051074 4.49505 0.143855 4.58211Z" fill="#252733"/>
</svg>
