<svg width="5" height="9" viewBox="0 0 5 9" fill="none" xmlns="http://www.w3.org/2000/svg">
<path d="M0.417894 0.143855L0.138678 0.438663C0.0514794 0.531444 0.00344087 0.654883 0.00344088 0.786811C0.00344088 0.918666 0.0514794 1.04225 0.138678 1.13503L3.30193 4.49799L0.135169 7.86482C0.0479697 7.95745 -4.0169e-08 8.08104 -3.44054e-08 8.2129C-2.86419e-08 8.34475 0.0479698 8.46841 0.135169 8.56112L0.412664 8.856C0.593118 9.048 0.887061 9.048 1.06752 8.856L4.85148 4.84738C4.93861 4.75475 5 4.63131 5 4.49828L5 4.49674C5 4.36482 4.93854 4.24138 4.85148 4.14874L1.07777 0.143855C0.99064 0.051074 0.871025 0.000145874 0.747006 -3.26527e-08C0.622918 -2.72286e-08 0.504955 0.051074 0.417894 0.143855Z" fill="#252733"/>
</svg>
